<svg width="6" height="7" viewBox="0 0 6 7" fill="none" xmlns="http://www.w3.org/2000/svg">
<path d="M5.95886 5.20734C5.94044 5.23912 5.91612 5.26682 5.88729 5.28887C5.85847 5.31092 5.82571 5.32687 5.79089 5.33582C5.75608 5.34477 5.71989 5.34654 5.68441 5.34102C5.64894 5.33551 5.61486 5.32281 5.58415 5.30367L3.27252 3.87176V6.46875C3.27252 6.54334 3.24381 6.61488 3.1927 6.66762C3.14159 6.72037 3.07228 6.75 3 6.75C2.92772 6.75 2.85841 6.72037 2.8073 6.66762C2.75619 6.61488 2.72748 6.54334 2.72748 6.46875V3.87176L0.415169 5.30367C0.384469 5.32314 0.350334 5.33612 0.314738 5.34189C0.279143 5.34765 0.242794 5.34607 0.207795 5.33723C0.172795 5.3284 0.13984 5.3125 0.110836 5.29044C0.0818321 5.26837 0.0573548 5.2406 0.0388207 5.20871C0.0202865 5.17682 0.00806338 5.14146 0.00285847 5.10466C-0.00234643 5.06787 -0.000429684 5.03037 0.00849764 4.99435C0.017425 4.95832 0.0331856 4.92448 0.0548679 4.89478C0.0765502 4.86508 0.103724 4.84012 0.134816 4.82133L2.47029 3.375L0.134816 1.92867C0.103724 1.90988 0.0765502 1.88492 0.0548679 1.85522C0.0331856 1.82552 0.017425 1.79168 0.00849764 1.75565C-0.000429684 1.71963 -0.00234643 1.68213 0.00285847 1.64534C0.00806338 1.60854 0.0202865 1.57318 0.0388207 1.54129C0.0573548 1.5094 0.0818321 1.48163 0.110836 1.45956C0.13984 1.4375 0.172795 1.4216 0.207795 1.41277C0.242794 1.40393 0.279143 1.40235 0.314738 1.40811C0.350334 1.41388 0.384469 1.42686 0.415169 1.44633L2.72748 2.87824V0.28125C2.72748 0.206658 2.75619 0.135121 2.8073 0.0823763C2.85841 0.0296317 2.92772 0 3 0C3.07228 0 3.14159 0.0296317 3.1927 0.0823763C3.24381 0.135121 3.27252 0.206658 3.27252 0.28125V2.87824L5.58483 1.44633C5.61553 1.42686 5.64967 1.41388 5.68526 1.40811C5.72086 1.40235 5.75721 1.40393 5.79221 1.41277C5.82721 1.4216 5.86016 1.4375 5.88916 1.45956C5.91817 1.48163 5.94265 1.5094 5.96118 1.54129C5.97971 1.57318 5.99194 1.60854 5.99714 1.64534C6.00235 1.68213 6.00043 1.71963 5.9915 1.75565C5.98258 1.79168 5.96681 1.82552 5.94513 1.85522C5.92345 1.88492 5.89628 1.90988 5.86518 1.92867L3.52971 3.375L5.86518 4.82133C5.89591 4.84031 5.9227 4.86536 5.94404 4.89504C5.96538 4.92472 5.98084 4.95845 5.98954 4.9943C5.99824 5.03015 6.00001 5.06742 5.99475 5.10397C5.98948 5.14053 5.97729 5.17565 5.95886 5.20734Z" fill="#A3A3A3"/>
</svg>
